#N canvas 419 40 1126 755 10;
#X obj 89 283 print;
#X obj 86 36 vsl 15 128 0 127 0 0 empty empty empty 0 -9 0 10 -262144
-1 -1 0 1;
#X obj 88 187 / 127;
#X obj 88 234 int;
#X obj 299 90 tgl 30 0 empty empty empty 0 -6 0 8 -262144 -1 -1 0 1
;
#X obj 302 181 bng 30 250 50 0 empty empty empty 0 -6 0 8 -262144 -1
-1;
#X msg 159 159 bang;
#X obj 300 144 metro 1000;
#X obj 304 234 random 100;
#X obj 305 277 print;
#X obj 300 39 loadbang;
#X obj 422 207 float;
#X obj 417 254 + 1;
#X obj 421 349 print;
#X obj 420 55 tgl 30 0 empty empty empty 0 -6 0 8 -262144 -1 -1 1 1
;
#X obj 421 145 bng 30 250 50 0 empty empty empty 0 -6 0 8 -262144 -1
-1;
#X obj 419 108 metro 1000;
#X msg 551 204 0;
#X floatatom 440 308 5 0 0 0 - - -, f 5;
#X obj 521 416 bng 15 250 50 0 empty empty empty 17 7 0 10 -262144
-1 -1;
#X obj 455 421 bng 15 250 50 0 empty empty empty 17 7 0 10 -262144
-1 -1;
#X obj 474 386 select 10;
#X obj 706 595 gemwin;
#X obj 717 497 tgl 15 0 empty empty empty 17 7 0 10 -262144 -1 -1 0
1;
#X msg 763 486 create;
#X msg 832 508 destroy;
#X msg 927 527 dimen 400 400;
#X msg 862 591 color 1 0 0;
#X obj 747 431 bng 15 250 50 0 empty empty empty 17 7 0 10 -262144
-1 -1;
#X obj 782 448 bng 15 250 50 0 empty empty empty 17 7 0 10 -262144
-1 -1;
#X obj 861 448 bng 15 250 50 0 empty empty empty 17 7 0 10 -262144
-1 -1;
#X obj 862 400 bng 15 250 50 0 empty empty empty 17 7 0 10 -262144
-1 -1;
#X obj 725 365 t b b b b b;
#X obj 780 282 bng 15 250 50 0 empty empty empty 17 7 0 10 -262144
-1 -1;
#X obj 828 362 bng 15 250 50 0 empty empty empty 17 7 0 10 -262144
-1 -1;
#X connect 1 0 2 0;
#X connect 2 0 3 0;
#X connect 3 0 0 0;
#X connect 4 0 7 0;
#X connect 5 0 8 0;
#X connect 7 0 5 0;
#X connect 8 0 9 0;
#X connect 10 0 4 0;
#X connect 11 0 12 0;
#X connect 12 0 11 1;
#X connect 12 0 18 0;
#X connect 12 0 13 0;
#X connect 14 0 16 0;
#X connect 14 0 11 0;
#X connect 15 0 11 0;
#X connect 16 0 15 0;
#X connect 16 0 11 0;
#X connect 17 0 11 1;
#X connect 18 0 21 0;
#X connect 21 0 17 0;
#X connect 21 0 20 0;
#X connect 21 1 19 0;
#X connect 23 0 22 0;
#X connect 24 0 22 0;
#X connect 25 0 22 0;
#X connect 26 0 22 0;
#X connect 27 0 22 0;
#X connect 29 0 23 0;
#X connect 30 0 24 0;
#X connect 31 0 25 0;
#X connect 32 0 28 0;
#X connect 32 1 29 0;
#X connect 32 2 30 0;
#X connect 32 3 31 0;
#X connect 32 4 34 0;
#X connect 33 0 32 0;
#X connect 33 0 27 0;
#X connect 34 0 26 0;
